<?xml version="1.0" encoding="utf-8"?>
<!-- Generator: Adobe Illustrator 22.1.0, SVG Export Plug-In . SVG Version: 6.00 Build 0)  -->
<svg version="1.1" id="Layer_1" xmlns="http://www.w3.org/2000/svg" xmlns:xlink="http://www.w3.org/1999/xlink" x="0px" y="0px"
	 viewBox="0 0 24.5 21.5" style="enable-background:new 0 0 24.5 21.5;" xml:space="preserve">
<style type="text/css">
	.st0{fill:#3D58A6;}
</style>
<path class="st0" d="M15.6,17.4v-2.5c0-0.5-0.2-0.8-0.6-0.8c-0.3,0-0.5,0.1-0.7,0.3V18c0.2,0.2,0.5,0.3,0.7,0.3
	C15.4,18.2,15.6,18,15.6,17.4L15.6,17.4z M19.7,15.5h1.5v-0.5c0-0.5-0.2-0.8-0.7-0.8s-0.7,0.3-0.7,0.8V15.5z M7,11.2v1.1H5.2v6.8
	H3.6v-6.8H1.8v-1.1H7L7,11.2z M11.5,13.2v5.9H10v-0.6c-0.6,0.5-1.1,0.7-1.7,0.7c-0.5,0-0.8-0.2-0.9-0.5c-0.1-0.2-0.1-0.5-0.1-0.9
	v-4.7h1.5v4.4c0,0.3,0,0.4,0,0.4c0,0.2,0.1,0.2,0.3,0.2c0.3,0,0.6-0.2,0.9-0.5v-4.5L11.5,13.2L11.5,13.2z M17.1,15v2.4
	c0,0.6-0.1,1-0.2,1.2c-0.2,0.5-0.6,0.7-1.2,0.7c-0.5,0-1-0.2-1.5-0.7v0.6h-1.5v-8h1.5v2.6c0.5-0.4,1-0.6,1.5-0.6
	c0.6,0,1,0.2,1.2,0.7C17,14,17.1,14.4,17.1,15z M22.7,17.1v0.1c0,0.3,0,0.5,0,0.7c0,0.2-0.2,0.5-0.3,0.6c-0.4,0.4-1,0.6-1.8,0.6
	c-0.8,0-1.4-0.2-1.8-0.6c-0.3-0.3-0.5-0.8-0.5-1.4v-2.1c0-0.6,0.1-1.1,0.4-1.4c0.4-0.4,1-0.6,1.8-0.6c0.8,0,1.3,0.2,1.7,0.6
	c0.3,0.3,0.5,0.8,0.5,1.4v1.2h-3v1c0,0.5,0.3,0.8,0.8,0.8c0.4,0,0.6-0.1,0.7-0.4c0,0,0,0,0-0.1c0-0.1,0-0.2,0-0.3v-0.3L22.7,17.1
	L22.7,17.1z M12.6,3.8v2.5c0,0.5-0.2,0.8-0.7,0.8s-0.7-0.3-0.7-0.8V3.8c0-0.6,0.2-0.8,0.7-0.8S12.6,3.2,12.6,3.8z M24.5,15.3
	c0-1.9-0.1-3.3-0.4-4.2c-0.1-0.5-0.5-0.9-1-1.2c-0.5-0.3-1.1-0.5-1.7-0.6c-2-0.2-5.1-0.2-9.2-0.2c-4.1,0-7.1,0.1-9.2,0.2
	C2.4,9.4,1.9,9.6,1.4,9.9c-0.5,0.3-0.8,0.7-0.9,1.2C0.1,12,0,13.4,0,15.3c0,1.9,0.1,3.3,0.4,4.2c0.1,0.5,0.5,0.9,0.9,1.2
	c0.5,0.3,1,0.5,1.7,0.6c2,0.2,5.1,0.2,9.2,0.2c4.1,0,7.1-0.1,9.2-0.2c0.6-0.1,1.2-0.2,1.7-0.6c0.5-0.3,0.8-0.7,0.9-1.2
	C24.4,18.6,24.5,17.2,24.5,15.3z M7.7,4.8l2-4.8H8L6.9,3.1L5.7,0H4l0.5,1.1c0,0,0.2,0.4,0.5,1.1c0.5,1.1,0.9,2,1,2.6V8h1.6L7.7,4.8
	L7.7,4.8z M14.1,6.1V4c0-0.6-0.2-1.1-0.5-1.4c-0.4-0.4-1-0.6-1.7-0.6c-0.8,0-1.3,0.2-1.7,0.6C9.9,2.9,9.7,3.4,9.7,4v2.1
	c0,0.6,0.2,1.1,0.5,1.4c0.4,0.4,1,0.6,1.7,0.6c0.7,0,1.3-0.2,1.7-0.6C14,7.2,14.1,6.7,14.1,6.1z M18.2,8h1.5V2h-1.5v4.6
	c-0.3,0.3-0.6,0.5-0.9,0.5c-0.2,0-0.3-0.1-0.4-0.3c0,0,0-0.2,0-0.4V2h-1.5v4.7c0,0.4,0,0.7,0.1,0.9c0.2,0.3,0.5,0.4,1,0.4
	c0.5,0,1.1-0.2,1.7-0.7L18.2,8L18.2,8z"/>
</svg>
